<svg width="138" height="36" viewBox="0 0 138 36" fill="none" xmlns="http://www.w3.org/2000/svg">
<path d="M43.7515 0.43987V35.5806H30.5722C27.9519 35.3561 25.4948 34.5568 23.3275 33.311C24.3863 32.5352 25.3717 31.6433 26.2647 30.6456C26.7482 30.1057 27.1978 29.5414 27.6124 28.9561C28.6275 29.3728 29.7142 29.6523 30.8481 29.7712C31.2592 29.8148 31.6764 29.8367 32.0989 29.8367C32.5213 29.8367 37.947 29.7712 37.947 29.7712V6.14014H32.8146C32.6968 6.13315 32.3974 6.12878 32.0989 6.12878C31.8003 6.12878 31.501 6.13315 31.3831 6.14014C30.0459 6.21964 28.7689 6.52103 27.5879 7.00763C27.3819 7.09324 27.1786 7.18323 26.9778 7.2802C26.7779 7.37542 26.5815 7.47763 26.3878 7.58421C24.6577 8.53906 23.1913 9.91324 22.1265 11.5705C21.9929 11.7775 21.8663 11.9889 21.7459 12.2038C21.6202 12.4301 21.5015 12.6607 21.3898 12.8957C20.6592 14.4359 20.2498 16.1586 20.2498 17.9775C20.2498 19.7963 20.6609 21.5261 21.395 23.0689C20.4139 24.8589 18.9266 26.3344 17.111 27.298C15.4351 24.5977 14.4671 21.4116 14.4671 17.9993C14.4671 14.587 15.4412 11.3809 17.1267 8.67534C17.2428 8.48926 17.3615 8.30493 17.4846 8.1241C17.6077 7.94151 17.7342 7.76155 17.8652 7.58421C18.2318 7.08189 18.6245 6.59966 19.0418 6.14014C19.9609 5.12676 20.9961 4.2217 22.1265 3.4442C22.3202 3.31141 22.5157 3.18212 22.7148 3.05632C22.9155 2.92964 23.1198 2.80734 23.3258 2.68853C25.4276 1.47946 27.8027 0.691468 30.3357 0.43987H43.7515Z" fill="white"/>
<path d="M29.7858 17.9993C29.7858 21.4116 28.8178 24.5977 27.1419 27.298C27.0267 27.4841 26.9071 27.6684 26.784 27.8501C26.6636 28.0301 26.5396 28.2074 26.4122 28.383C26.0613 28.8643 25.686 29.3282 25.2897 29.7712C24.3514 30.8195 23.2891 31.7551 22.1265 32.5545C21.9318 32.6881 21.7354 32.8183 21.5355 32.9432C21.3348 33.0699 21.1314 33.1922 20.9254 33.311C18.7581 34.5568 16.301 35.3561 13.6807 35.5806H0.501373V0.43987H13.9172C16.4503 0.691468 18.8253 1.47946 20.9271 2.68853C19.8998 3.4407 18.9431 4.30033 18.0729 5.25955C17.5666 5.81691 17.097 6.40135 16.665 7.0085C15.484 6.52103 14.207 6.21964 12.8698 6.14014C12.6332 6.12529 12.3941 6.1183 12.154 6.1183C11.914 6.1183 11.6748 6.12529 11.4383 6.14014H6.30588V29.7712C6.30588 29.7712 11.7316 29.8367 12.154 29.8367C12.5765 29.8367 12.9937 29.8148 13.4048 29.7712C14.5387 29.6523 15.6254 29.3728 16.6405 28.9561C16.8474 28.8713 17.0517 28.7814 17.2515 28.6844C17.4514 28.59 17.6478 28.4896 17.8407 28.383C19.5821 27.429 21.0572 26.0487 22.1265 24.3836C22.2574 24.1801 22.3822 23.973 22.5 23.7608C22.6275 23.5345 22.7471 23.3039 22.8579 23.0689C23.592 21.5261 24.0031 19.7998 24.0031 17.9775C24.0031 16.1551 23.5937 14.4359 22.8631 12.8957C23.8451 11.1136 25.3281 9.64068 27.1262 8.67534C28.8117 11.3809 29.7858 14.5765 29.7858 17.9993Z" fill="white"/>
<path d="M54.5632 0.205597H59.6797C61.4539 0.205597 62.9345 0.842816 64.1215 2.11725C65.3085 3.3792 65.902 4.92851 65.902 6.7652C65.902 8.5894 65.3085 10.145 64.1215 11.4319C62.9345 12.6938 61.4539 13.3248 59.6797 13.3248H54.5632V0.205597ZM56.3062 11.6755H59.6797C61.0166 11.6755 62.1099 11.207 62.9595 10.2699C63.8092 9.32033 64.234 8.15209 64.234 6.7652C64.234 5.37832 63.8092 4.21008 62.9595 3.2605C62.1099 2.32341 61.0166 1.85487 59.6797 1.85487H56.3062V11.6755Z" fill="white"/>
<path d="M76.8429 9.38905H68.9901C69.1525 10.2137 69.5336 10.8634 70.1334 11.3382C70.7331 11.8005 71.4828 12.0316 72.3824 12.0316C73.6193 12.0316 74.5189 11.5756 75.0812 10.6635L76.4681 11.4506C75.5435 12.8625 74.1691 13.5685 72.3449 13.5685C70.8705 13.5685 69.6586 13.1062 68.709 12.1816C67.7844 11.232 67.3221 10.0513 67.3221 8.63938C67.3221 7.21501 67.7782 6.04052 68.6903 5.11593C69.6023 4.17885 70.7831 3.7103 72.2324 3.7103C73.6068 3.7103 74.7251 4.19759 75.5872 5.17216C76.4618 6.12174 76.8991 7.28373 76.8991 8.65812C76.8991 8.89552 76.8804 9.13916 76.8429 9.38905ZM72.2324 5.24712C71.3703 5.24712 70.6456 5.49077 70.0584 5.97805C69.4837 6.46534 69.1276 7.12755 68.9901 7.96468H75.2499C75.1124 7.10256 74.7688 6.4341 74.2191 5.95931C73.6693 5.48452 73.0071 5.24712 72.2324 5.24712Z" fill="white"/>
<path d="M87.7512 9.38905H79.8984C80.0608 10.2137 80.4419 10.8634 81.0416 11.3382C81.6414 11.8005 82.391 12.0316 83.2906 12.0316C84.5276 12.0316 85.4272 11.5756 85.9895 10.6635L87.3763 11.4506C86.4518 12.8625 85.0774 13.5685 83.2532 13.5685C81.7788 13.5685 80.5668 13.1062 79.6173 12.1816C78.6927 11.232 78.2304 10.0513 78.2304 8.63938C78.2304 7.21501 78.6864 6.04052 79.5985 5.11593C80.5106 4.17885 81.6914 3.7103 83.1407 3.7103C84.5151 3.7103 85.6334 4.19759 86.4955 5.17216C87.3701 6.12174 87.8074 7.28373 87.8074 8.65812C87.8074 8.89552 87.7887 9.13916 87.7512 9.38905ZM83.1407 5.24712C82.2786 5.24712 81.5539 5.49077 80.9667 5.97805C80.3919 6.46534 80.0358 7.12755 79.8984 7.96468H86.1581C86.0207 7.10256 85.6771 6.4341 85.1273 5.95931C84.5776 5.48452 83.9154 5.24712 83.1407 5.24712Z" fill="white"/>
<path d="M94.8544 3.7103C96.1664 3.7103 97.2846 4.19134 98.2092 5.15342C99.1338 6.11549 99.5961 7.27748 99.5961 8.63938C99.5961 10.0138 99.1338 11.182 98.2092 12.1441C97.2971 13.0937 96.1789 13.5685 94.8544 13.5685C93.3051 13.5685 92.1244 12.95 91.3123 11.713V17.0732H89.6817V3.95395H91.3123V5.56573C92.1244 4.32878 93.3051 3.7103 94.8544 3.7103ZM94.6483 11.9942C95.5854 11.9942 96.3725 11.6755 97.0097 11.0383C97.647 10.3761 97.9656 9.57647 97.9656 8.63938C97.9656 7.6898 97.647 6.8964 97.0097 6.25918C96.3725 5.60946 95.5854 5.28461 94.6483 5.28461C93.6987 5.28461 92.9053 5.60946 92.2681 6.25918C91.6309 6.8964 91.3123 7.6898 91.3123 8.63938C91.3123 9.57647 91.6309 10.3761 92.2681 11.0383C92.9053 11.6755 93.6987 11.9942 94.6483 11.9942Z" fill="white"/>
<path d="M101.71 0.205597H106.827C108.601 0.205597 110.082 0.842816 111.269 2.11725C112.456 3.3792 113.049 4.92851 113.049 6.7652C113.049 8.5894 112.456 10.145 111.269 11.4319C110.082 12.6938 108.601 13.3248 106.827 13.3248H101.71V0.205597ZM103.453 11.6755H106.827C108.164 11.6755 109.257 11.207 110.107 10.2699C110.956 9.32033 111.381 8.15209 111.381 6.7652C111.381 5.37832 110.956 4.21008 110.107 3.2605C109.257 2.32341 108.164 1.85487 106.827 1.85487H103.453V11.6755Z" fill="white"/>
<path d="M115.819 2.24845C115.506 2.24845 115.244 2.14224 115.032 1.92984C114.819 1.71743 114.713 1.46129 114.713 1.16143C114.713 0.861558 114.819 0.605421 115.032 0.393014C115.244 0.168114 115.506 0.0556641 115.819 0.0556641C116.119 0.0556641 116.375 0.168114 116.587 0.393014C116.8 0.605421 116.906 0.861558 116.906 1.16143C116.906 1.46129 116.8 1.71743 116.587 1.92984C116.375 2.14224 116.119 2.24845 115.819 2.24845ZM116.625 13.3248H114.994V3.95395H116.625V13.3248Z" fill="white"/>
<path d="M122.729 11.5818L125.672 3.95395H127.433L123.685 13.3248H121.773L118.025 3.95395H119.787L122.729 11.5818Z" fill="white"/>
<path d="M137.442 9.38905H129.59C129.752 10.2137 130.133 10.8634 130.733 11.3382C131.333 11.8005 132.082 12.0316 132.982 12.0316C134.219 12.0316 135.118 11.5756 135.681 10.6635L137.068 11.4506C136.143 12.8625 134.769 13.5685 132.944 13.5685C131.47 13.5685 130.258 13.1062 129.308 12.1816C128.384 11.232 127.922 10.0513 127.922 8.63938C127.922 7.21501 128.378 6.04052 129.29 5.11593C130.202 4.17885 131.383 3.7103 132.832 3.7103C134.206 3.7103 135.325 4.19759 136.187 5.17216C137.061 6.12174 137.499 7.28373 137.499 8.65812C137.499 8.89552 137.48 9.13916 137.442 9.38905ZM132.832 5.24712C131.97 5.24712 131.245 5.49077 130.658 5.97805C130.083 6.46534 129.727 7.12755 129.59 7.96468H135.849C135.712 7.10256 135.368 6.4341 134.819 5.95931C134.269 5.48452 133.607 5.24712 132.832 5.24712Z" fill="white"/>
<path d="M64.8712 22.4614H66.8391V35.5806H65.1148V25.3289L60.823 32.4695H60.5981L56.3062 25.3476V35.5806H54.5632V22.4614H56.5311L60.7105 29.3959L64.8712 22.4614Z" fill="white"/>
<path d="M78.4718 31.6449H70.619C70.7815 32.4695 71.1625 33.1192 71.7623 33.594C72.362 34.0563 73.1117 34.2874 74.0113 34.2874C75.2482 34.2874 76.1479 33.8314 76.7101 32.9193L78.097 33.7065C77.1724 35.1183 75.798 35.8243 73.9738 35.8243C72.4995 35.8243 71.2875 35.362 70.3379 34.4374C69.4133 33.4878 68.951 32.3071 68.951 30.8952C68.951 29.4708 69.4071 28.2963 70.3192 27.3717C71.2313 26.4347 72.412 25.9661 73.8614 25.9661C75.2357 25.9661 76.354 26.4534 77.2161 27.428C78.0907 28.3776 78.528 29.5395 78.528 30.9139C78.528 31.1513 78.5093 31.395 78.4718 31.6449ZM73.8614 27.5029C72.9992 27.5029 72.2746 27.7466 71.6873 28.2339C71.1126 28.7211 70.7565 29.3834 70.619 30.2205H76.8788C76.7413 29.3584 76.3977 28.6899 75.848 28.2151C75.2982 27.7403 74.636 27.5029 73.8614 27.5029Z" fill="white"/>
<path d="M88.1431 27.8215V22.4614H89.7737V35.5806H88.1431V33.9688C87.3435 35.2058 86.1628 35.8243 84.601 35.8243C83.2765 35.8243 82.1583 35.3495 81.2462 34.3999C80.3216 33.4378 79.8593 32.2696 79.8593 30.8952C79.8593 29.5333 80.3216 28.3713 81.2462 27.4092C82.1708 26.4472 83.289 25.9661 84.601 25.9661C86.1628 25.9661 87.3435 26.5846 88.1431 27.8215ZM84.8071 34.25C85.7567 34.25 86.5501 33.9314 87.1873 33.2941C87.8245 32.6319 88.1431 31.8323 88.1431 30.8952C88.1431 29.9456 87.8245 29.1522 87.1873 28.515C86.5501 27.8653 85.7567 27.5404 84.8071 27.5404C83.87 27.5404 83.0829 27.8653 82.4457 28.515C81.8084 29.1522 81.4898 29.9456 81.4898 30.8952C81.4898 31.8323 81.8084 32.6319 82.4457 33.2941C83.0829 33.9314 83.87 34.25 84.8071 34.25Z" fill="white"/>
<path d="M93.0687 24.5043C92.7563 24.5043 92.494 24.3981 92.2816 24.1856C92.0691 23.9732 91.963 23.7171 91.963 23.4172C91.963 23.1174 92.0691 22.8612 92.2816 22.6488C92.494 22.4239 92.7563 22.3115 93.0687 22.3115C93.3686 22.3115 93.6247 22.4239 93.8371 22.6488C94.0495 22.8612 94.1557 23.1174 94.1557 23.4172C94.1557 23.7171 94.0495 23.9732 93.8371 24.1856C93.6247 24.3981 93.3686 24.5043 93.0687 24.5043ZM93.8746 35.5806H92.2441V26.2098H93.8746V35.5806Z" fill="white"/>
<path d="M104.121 27.8215V26.2098H105.752V35.5806H104.121V33.9688C103.322 35.2058 102.141 35.8243 100.579 35.8243C99.2546 35.8243 98.1363 35.3495 97.2243 34.3999C96.2997 33.4378 95.8374 32.2696 95.8374 30.8952C95.8374 29.5333 96.2997 28.3713 97.2243 27.4092C98.1488 26.4472 99.2671 25.9661 100.579 25.9661C102.141 25.9661 103.322 26.5846 104.121 27.8215ZM100.785 34.25C101.735 34.25 102.528 33.9314 103.165 33.2941C103.803 32.6319 104.121 31.8323 104.121 30.8952C104.121 29.9456 103.803 29.1522 103.165 28.515C102.528 27.8653 101.735 27.5404 100.785 27.5404C99.8481 27.5404 99.0609 27.8653 98.4237 28.515C97.7865 29.1522 97.4679 29.9456 97.4679 30.8952C97.4679 31.8323 97.7865 32.6319 98.4237 33.2941C99.0609 33.9314 99.8481 34.25 100.785 34.25Z" fill="white"/>
</svg>
